<svg width="38" height="33" viewBox="0 0 38 33" fill="none" xmlns="http://www.w3.org/2000/svg">
<path d="M1.26814 27.5396C0.855048 26.7737 0.763145 25.875 1.01265 25.0413C1.26216 24.2076 1.83263 23.5071 2.59857 23.094L25.4716 10.7581L13.7945 7.26347C12.9891 6.99113 12.3209 6.41681 11.9306 5.6615C11.5402 4.90619 11.4583 4.02887 11.7021 3.21436C11.9458 2.39985 12.4962 1.71175 13.2373 1.29503C13.9784 0.878318 14.8523 0.765514 15.6749 0.980388L34.939 6.74559C35.7719 6.99541 36.4716 7.56561 36.8843 8.33093C37.2971 9.09626 37.3892 9.99412 37.1404 10.8273L31.3752 30.0915C31.2638 30.5178 31.0677 30.9174 30.7986 31.2663C30.5295 31.6152 30.1928 31.9063 29.8087 32.1223C29.4247 32.3382 29.001 32.4747 28.5631 32.5233C28.1251 32.572 27.6819 32.532 27.2597 32.4057C26.8376 32.2794 26.4452 32.0693 26.106 31.788C25.7668 31.5067 25.4877 31.16 25.2854 30.7686C25.0831 30.3771 24.9618 29.9489 24.9285 29.5095C24.8953 29.0701 24.951 28.6286 25.0921 28.2111L28.5867 16.5341L5.71372 28.87C4.11954 29.7298 2.12792 29.1338 1.26814 27.5396Z" fill="white"/>
</svg>
