<svg width="39" height="58" viewBox="0 0 39 58" fill="none" xmlns="http://www.w3.org/2000/svg">
<path d="M9.66669 57.9994C15.0171 57.9994 19.3334 53.6831 19.3334 48.3327V38.666H9.66669C4.31629 38.666 0 42.9823 0 48.3327C0 53.6831 4.31629 57.9994 9.66669 57.9994Z" fill="#0ACF83"/>
<path d="M0 29.0007C0 23.6503 4.31629 19.334 9.66669 19.334H19.3334V38.6674H9.66669C4.31629 38.6674 0 34.3511 0 29.0007Z" fill="#A259FF"/>
<path d="M0 9.66669C0 4.31629 4.31629 0 9.66669 0H19.3334V19.3334H9.66669C4.31629 19.3334 0 15.0171 0 9.66669Z" fill="#F24E1E"/>
<path d="M19.3335 0H29.0002C34.3506 0 38.6669 4.31629 38.6669 9.66669C38.6669 15.0171 34.3506 19.3334 29.0002 19.3334H19.3335V0Z" fill="#FF7262"/>
<path d="M38.6669 29.0007C38.6669 34.3511 34.3506 38.6674 29.0002 38.6674C23.6498 38.6674 19.3335 34.3511 19.3335 29.0007C19.3335 23.6503 23.6498 19.334 29.0002 19.334C34.3506 19.334 38.6669 23.6503 38.6669 29.0007Z" fill="#1ABCFE"/>
</svg>
