<svg width="360" height="360" viewBox="0 0 360 360" fill="none" xmlns="http://www.w3.org/2000/svg">
<path d="M65.0231 191.189C65.0231 191.189 73.4255 236.47 116.042 261.029C158.659 285.588 211.622 279.749 254.671 276.099C297.72 272.448 326.779 243.36 326.16 206.136C325.541 168.912 291.341 163.174 267.343 124.359C243.346 85.5434 242.834 71.6618 201.6 51.8402C160.366 32.0186 104.198 56.5922 80.2079 104.998C56.2175 153.403 65.0231 191.189 65.0231 191.189Z" fill="#5B7FB0" fill-opacity="0.05"/>
<path d="M166.68 321.84C228.387 321.84 278.41 318.224 278.41 313.762C278.41 309.3 228.387 305.684 166.68 305.684C104.973 305.684 54.9504 309.3 54.9504 313.762C54.9504 318.224 104.973 321.84 166.68 321.84Z" fill="#92E3A9"/>
<path opacity="0.5" d="M166.68 321.84C228.387 321.84 278.41 318.224 278.41 313.762C278.41 309.3 228.387 305.684 166.68 305.684C104.973 305.684 54.9504 309.3 54.9504 313.762C54.9504 318.224 104.973 321.84 166.68 321.84Z" fill="#395886"/>
<path d="M209.398 120.046V120.78H208.663" stroke="#263238" stroke-width="0.736488" stroke-linecap="round" stroke-linejoin="round"/>
<path d="M207.209 120.78H164.376" stroke="#032451" stroke-width="0.736488" stroke-linecap="round" stroke-linejoin="round" stroke-dasharray="1.45 1.45"/>
<path d="M163.649 120.78H162.907V120.046" stroke="#263238" stroke-width="0.736488" stroke-linecap="round" stroke-linejoin="round"/>
<path d="M162.907 118.627V85.3125" stroke="#032451" stroke-width="0.736488" stroke-linecap="round" stroke-linejoin="round" stroke-dasharray="1.42 1.42"/>
<path d="M162.907 84.6006V83.8662H163.649" stroke="#263238" stroke-width="0.736488" stroke-linecap="round" stroke-linejoin="round"/>
<path d="M165.096 83.8662H207.936" stroke="#032451" stroke-width="0.736488" stroke-linecap="round" stroke-linejoin="round" stroke-dasharray="1.45 1.45"/>
<path d="M208.663 83.8662H209.398V84.6006" stroke="#263238" stroke-width="0.736488" stroke-linecap="round" stroke-linejoin="round"/>
<path d="M209.398 86.0186V119.34" stroke="#032451" stroke-width="0.736488" stroke-linecap="round" stroke-linejoin="round" stroke-dasharray="1.42 1.42"/>
<path d="M201.975 89.7627H170.331V114.891H201.975V89.7627Z" fill="white" stroke="#263238" stroke-width="0.736488" stroke-linecap="round" stroke-linejoin="round"/>
<path d="M168.473 87.898L157.615 79.5244" stroke="#032451" stroke-width="0.736488" stroke-linecap="round" stroke-linejoin="round"/>
<path d="M204.149 116.129L213.459 124.193" stroke="#263238" stroke-width="0.736488" stroke-linecap="round" stroke-linejoin="round"/>
<path d="M157.183 82.2818L156.866 78.7178H160.589" fill="#032451"/>
<path d="M157.183 82.2818L156.866 78.7178H160.589" stroke="#032451" stroke-width="0.736488" stroke-linecap="round" stroke-linejoin="round"/>
<path d="M213.711 120.823L214.351 124.711L209.823 124.877" stroke="#263238" stroke-width="0.736488" stroke-linecap="round" stroke-linejoin="round"/>
<path d="M226.159 220.723V215.899H240.804V220.723H226.159Z" fill="#032451" stroke="#032451" stroke-width="0.72"/>
<path d="M237.917 223.368V213.246L246.686 218.304L237.917 223.368Z" fill="#032451" stroke="#032451" stroke-width="0.72"/>
<path d="M214.718 177.3H179.381C176.625 177.3 174.391 179.534 174.391 182.289V260.755C174.391 263.511 176.625 265.745 179.381 265.745H214.718C217.474 265.745 219.708 263.511 219.708 260.755V182.289C219.708 179.534 217.474 177.3 214.718 177.3Z" fill="#263238" stroke="#263238" stroke-width="0.59705" stroke-linecap="round" stroke-linejoin="round"/>
<path d="M217.699 183.305H176.407V260.489H217.699V183.305Z" fill="white" stroke="#263238" stroke-width="0.59705" stroke-linecap="round" stroke-linejoin="round"/>
<path d="M210.046 277.92L213.199 265.68C213.544 264.361 213.718 263.003 213.718 261.64V246.96C213.774 246.77 213.806 246.574 213.811 246.376C213.769 245.722 213.469 245.112 212.978 244.677C212.487 244.243 211.845 244.021 211.19 244.058C210.483 244.044 209.798 244.302 209.275 244.778C209.18 244.166 208.862 243.61 208.382 243.218C207.903 242.826 207.295 242.625 206.676 242.654C206.248 242.645 205.825 242.739 205.44 242.927C205.056 243.115 204.722 243.391 204.466 243.734C204.361 243.13 204.04 242.585 203.563 242.201C203.086 241.817 202.486 241.62 201.874 241.646C201.444 241.64 201.02 241.735 200.634 241.924C200.249 242.113 199.914 242.39 199.656 242.733C199.656 240.789 199.656 231.465 199.332 230.702C198.382 228.247 193.572 229.37 194.429 231.976V253.54C194.429 252.028 193.306 250.034 192.838 248.565C192.37 247.096 192.118 245.685 191.225 244.461C189.742 242.344 187.128 243.511 187.279 245.714C187.402 247.651 188.806 249.177 189.562 250.934C190.958 254.174 190.123 257.565 191.441 260.82C192.535 262.883 193.751 264.878 195.084 266.796C195.802 268.054 196.37 269.393 196.776 270.784L195.552 277.92" fill="white"/>
<path d="M210.046 277.92L213.199 265.68C213.544 264.361 213.718 263.003 213.718 261.64V246.96C213.774 246.77 213.806 246.574 213.811 246.376C213.769 245.722 213.469 245.112 212.978 244.677C212.487 244.243 211.845 244.021 211.19 244.058C210.483 244.044 209.798 244.302 209.275 244.778C209.18 244.166 208.862 243.61 208.382 243.218C207.903 242.826 207.295 242.625 206.676 242.654C206.248 242.645 205.825 242.739 205.44 242.927C205.056 243.115 204.722 243.391 204.466 243.734C204.361 243.13 204.04 242.585 203.563 242.201C203.086 241.817 202.486 241.62 201.874 241.646C201.444 241.64 201.02 241.735 200.634 241.924C200.249 242.113 199.914 242.39 199.656 242.733C199.656 240.789 199.656 231.465 199.332 230.702C198.382 228.247 193.572 229.37 194.429 231.976V253.54C194.429 252.028 193.306 250.034 192.838 248.565C192.37 247.096 192.118 245.685 191.225 244.461C189.742 242.344 187.128 243.511 187.279 245.714C187.402 247.651 188.806 249.177 189.562 250.934C190.958 254.174 190.123 257.565 191.441 260.82C192.535 262.883 193.751 264.878 195.084 266.796C195.802 268.054 196.37 269.393 196.776 270.784L195.552 277.92" stroke="#263238" stroke-width="0.736488" stroke-linecap="round" stroke-linejoin="round"/>
<path d="M197.086 223.271V227.303" stroke="#263238" stroke-width="0.736488" stroke-linecap="round" stroke-linejoin="round"/>
<path d="M201.622 231.077H204.898" stroke="#263238" stroke-width="0.736488" stroke-linecap="round" stroke-linejoin="round"/>
<path d="M188.021 231.077H191.297" stroke="#263238" stroke-width="0.736488" stroke-linecap="round" stroke-linejoin="round"/>
<path d="M192.557 226.8L193.817 228.809" stroke="#263238" stroke-width="0.736488" stroke-linecap="round" stroke-linejoin="round"/>
<path d="M200.11 229.061L201.874 226.8" stroke="#263238" stroke-width="0.736488" stroke-linecap="round" stroke-linejoin="round"/>
<path d="M216.23 213.199H177.948V217.987H216.23V213.199Z" stroke="#263238" stroke-width="0.736488" stroke-linecap="round" stroke-linejoin="round"/>
<path d="M197.597 187.51H179.208V209.419H197.597V187.51Z" stroke="#263238" stroke-width="0.736488" stroke-linecap="round" stroke-linejoin="round"/>
<path d="M179.208 187.51L197.59 209.419" stroke="#263238" stroke-width="0.736488" stroke-linecap="round" stroke-linejoin="round"/>
<path d="M178.704 251.734V220.5H215.978V251.482" stroke="#263238" stroke-width="0.736488" stroke-linecap="round" stroke-linejoin="round"/>
<path d="M290.93 177.3H255.593C252.837 177.3 250.603 179.534 250.603 182.289V260.755C250.603 263.511 252.837 265.745 255.593 265.745H290.93C293.686 265.745 295.92 263.511 295.92 260.755V182.289C295.92 179.534 293.686 177.3 290.93 177.3Z" fill="#263238" stroke="#1ABCFE" stroke-width="0.59705" stroke-linecap="round" stroke-linejoin="round"/>
<path d="M293.911 183.305H252.619V260.489H293.911V183.305Z" fill="white" stroke="#263238" stroke-width="0.59705" stroke-linecap="round" stroke-linejoin="round"/>
<path d="M292.039 187.006H254.765V227.808H292.039V187.006Z" stroke="#263238" stroke-width="0.736488" stroke-linecap="round" stroke-linejoin="round"/>
<path d="M254.765 231.58H292.039" stroke="#263238" stroke-width="0.736488" stroke-linecap="round" stroke-linejoin="round"/>
<path d="M254.765 234.604H292.039" stroke="#263238" stroke-width="0.736488" stroke-linecap="round" stroke-linejoin="round"/>
<path d="M254.765 237.629H292.039" stroke="#263238" stroke-width="0.736488" stroke-linecap="round" stroke-linejoin="round"/>
<path d="M254.765 240.653H292.039" stroke="#263238" stroke-width="0.736488" stroke-linecap="round" stroke-linejoin="round"/>
<path d="M254.765 243.669H292.039" stroke="#263238" stroke-width="0.736488" stroke-linecap="round" stroke-linejoin="round"/>
<path d="M254.765 246.693H292.039" stroke="#263238" stroke-width="0.736488" stroke-linecap="round" stroke-linejoin="round"/>
<path d="M254.765 249.718H292.039" stroke="#263238" stroke-width="0.736488" stroke-linecap="round" stroke-linejoin="round"/>
<path d="M254.765 227.808L292.039 187.006" stroke="#263238" stroke-width="0.736488" stroke-linecap="round" stroke-linejoin="round"/>
<path d="M290.93 75.7734H255.593C252.837 75.7734 250.603 78.0074 250.603 80.763V159.229C250.603 161.984 252.837 164.218 255.593 164.218H290.93C293.686 164.218 295.92 161.984 295.92 159.229V80.763C295.92 78.0074 293.686 75.7734 290.93 75.7734Z" fill="#263238" stroke="#263238" stroke-width="0.59705" stroke-linecap="round" stroke-linejoin="round"/>
<path d="M293.911 81.7773H252.619V158.961H293.911V81.7773Z" fill="white" stroke="#263238" stroke-width="0.59705" stroke-linecap="round" stroke-linejoin="round"/>
<path d="M204.948 174.665V151.143H238.046" stroke="#032451" stroke-width="0.736488" stroke-linecap="round" stroke-linejoin="round"/>
<path d="M237.327 148.094L242.604 151.143L237.327 154.191V148.094Z" fill="#032451" stroke="#032451" stroke-width="0.72"/>
<path d="M272.427 174.046V155.988" stroke="#263238" stroke-width="0.736488" stroke-linecap="round" stroke-linejoin="round"/>
<path d="M276.098 157.068L272.426 150.703L268.754 157.068H276.098Z" fill="#263238"/>
<path d="M255.363 273.794H272.059" stroke="#0E1520" stroke-width="0.736488" stroke-linecap="round" stroke-linejoin="round"/>
<path d="M255.363 277.553H272.059" stroke="#0E1520" stroke-width="0.736488" stroke-linecap="round" stroke-linejoin="round"/>
<path d="M255.363 281.304H272.059" stroke="#0E1520" stroke-width="0.736488" stroke-linecap="round" stroke-linejoin="round"/>
<path d="M214.877 273.794H231.574" stroke="#0E1520" stroke-width="0.736488" stroke-linecap="round" stroke-linejoin="round"/>
<path d="M214.877 277.553H231.574" stroke="#0E1520" stroke-width="0.736488" stroke-linecap="round" stroke-linejoin="round"/>
<path d="M214.877 281.304H231.574" stroke="#0E1520" stroke-width="0.736488" stroke-linecap="round" stroke-linejoin="round"/>
<path d="M210.283 158.594H226.98" stroke="#0E1520" stroke-width="0.736488" stroke-linecap="round" stroke-linejoin="round"/>
<path d="M210.283 162.346H226.98" stroke="#0E1520" stroke-width="0.736488" stroke-linecap="round" stroke-linejoin="round"/>
<path d="M210.283 166.104H226.98" stroke="#0E1520" stroke-width="0.736488" stroke-linecap="round" stroke-linejoin="round"/>
<path d="M222.804 113.098H239.501" stroke="#032451" stroke-width="0.736488" stroke-linecap="round" stroke-linejoin="round"/>
<path d="M222.804 116.855H239.501" stroke="#032451" stroke-width="0.736488" stroke-linecap="round" stroke-linejoin="round"/>
<path d="M222.804 120.607H239.501" stroke="#032451" stroke-width="0.736488" stroke-linecap="round" stroke-linejoin="round"/>
<path d="M162.698 126.036H179.395" stroke="#032451" stroke-width="0.736488" stroke-linecap="round" stroke-linejoin="round"/>
<path d="M162.698 129.794H179.395" stroke="#032451" stroke-width="0.736488" stroke-linecap="round" stroke-linejoin="round"/>
<path d="M162.698 133.546H179.395" stroke="#032451" stroke-width="0.736488" stroke-linecap="round" stroke-linejoin="round"/>
<path d="M95.0401 305.28C95.0401 305.28 93.4921 311.242 93.4921 312.746C93.4921 314.251 93.1177 315.259 96.3721 315.886C99.6265 316.512 101.772 316.137 102.276 314.633C102.78 313.128 103.155 305.582 103.155 305.582L95.2345 304.07L95.0401 305.28Z" fill="white" stroke="#263238" stroke-width="0.745029" stroke-linecap="round" stroke-linejoin="round"/>
<path d="M102.24 314.64C102.342 314.297 102.414 313.945 102.456 313.589C99.4361 313.605 96.4204 313.364 93.4415 312.869C93.4415 314.309 93.1607 315.281 96.3214 315.886C99.4822 316.491 101.757 316.145 102.24 314.64Z" fill="white" stroke="#263238" stroke-width="0.745029" stroke-linecap="round" stroke-linejoin="round"/>
<path d="M171.396 305.841C171.396 305.841 173.909 306.719 177.559 307.85C181.209 308.98 188.64 310.24 189.36 310.362C190.08 310.485 190.08 311.997 189.482 312.63C188.885 313.264 185.587 315.143 181.692 316.144C177.797 317.145 164.592 318.03 163.461 317.282C162.518 316.648 162.835 310.492 163.209 309.11C163.584 307.727 171.396 305.841 171.396 305.841Z" fill="white" stroke="#263238" stroke-width="0.745029" stroke-linecap="round" stroke-linejoin="round"/>
<path d="M189.497 312.631C189.702 312.392 189.844 312.105 189.909 311.797C189.975 311.489 189.962 311.169 189.871 310.867C187.322 312.898 182.232 315.13 177.055 315.648C172.356 315.983 167.638 315.959 162.943 315.576C163.037 316.44 163.202 317.095 163.476 317.282C164.606 318.002 177.804 317.153 181.706 316.145C185.609 315.137 188.87 313.258 189.497 312.631Z" fill="white" stroke="#263238" stroke-width="0.745029" stroke-linecap="round" stroke-linejoin="round"/>
<path d="M110.592 196.25C110.592 196.25 108.432 209.397 110.102 216.698C110.102 216.698 106.942 245.656 106.452 258.559C106.452 258.559 99.6408 281.196 98.6616 288.252C97.7396 293.985 96.5309 299.668 95.04 305.28C96.5551 306.118 98.2005 306.695 99.9072 306.986C103.32 307.706 103.802 305.035 103.802 305.035C103.802 305.035 122.522 261.957 124.006 255.628C125.489 249.3 130.32 226.677 130.32 226.677L150.48 263.671C150.48 263.671 151.459 276.328 154.375 283.629C157.291 290.93 162.893 311.126 162.893 311.126C165.109 311.249 167.33 311.006 169.466 310.406C172.39 309.434 172.39 307.972 172.39 307.972C172.39 307.972 168.005 291.664 168.005 286.315C168.005 280.965 166.306 262.706 165.089 257.594C163.872 252.482 155.592 225.712 154.375 222.789C153.158 219.866 150.48 210.621 150.48 210.621L148.781 196.257C148.781 196.257 127.872 202.096 110.592 196.25Z" fill="#263238" stroke="#263238" stroke-width="0.745029" stroke-linecap="round" stroke-linejoin="round"/>
<path d="M126.036 134.222C126.036 134.222 124.913 131.796 124.913 130.305C124.913 128.815 124.193 121.73 124.193 121.73C124.193 121.73 134.993 102.168 137.981 98.438C139.93 96.0494 142.115 93.8639 144.504 91.9148C144.504 91.9148 151.776 90.4244 153.266 90.4244C154.757 90.4244 156.434 89.7044 156.434 88.7468C156.434 87.7892 154.008 88.0268 152.518 88.0268C151.027 88.0268 149.162 86.7236 149.162 86.7236C149.162 86.7236 151.589 79.7756 152.33 77.0324C152.726 75.5924 154.008 72.5612 153.05 72.5612C152.093 72.5612 151.934 73.2812 151.373 74.426C150.811 75.5708 148.392 79.2716 148.392 79.2716L148.946 71.0708C148.946 71.0708 148.226 69.9548 147.643 71.258C146.905 73.2703 146.282 75.3233 145.778 77.4068C145.606 78.0594 145.288 78.6648 144.85 79.178L144.13 73.0652C144.13 73.0652 142.862 71.7188 142.639 74.0516C142.517 75.3476 142.639 79.646 142.639 80.3876C142.639 81.1292 141.919 79.3292 141.919 79.3292C141.919 79.3292 141.48 77.306 140.99 77.0324C140.501 76.7588 140.062 77.4068 140.27 78.8972C140.479 80.3876 140.083 86.5364 140.083 86.5364C140.083 86.5364 138.967 88.0268 137.29 90.0788C135.612 92.1308 122.17 104.241 117.13 108.158C112.09 112.075 111.542 115.243 110.794 119.152C110.045 123.062 109.303 145.792 109.303 154.008C109.303 162.223 110.023 175.248 110.606 179.539C111.19 183.83 110.16 189.36 109.44 192.369C108.72 195.379 109.44 197.956 111.492 199.447C113.544 200.937 122.292 201.873 129.564 201.873C136.836 201.873 144.288 201.153 146.527 200.383C148.766 199.612 150.48 199.44 150.48 196.466C150.48 193.492 148.99 187.524 148.99 185.846C148.99 184.168 151.978 166.838 151.978 166.838C151.978 166.838 170.986 172.598 174.528 171.309C178.07 170.02 207.698 142.048 207.698 142.048C207.698 142.048 212.357 140.184 214.783 139.809C217.21 139.435 220.932 137.764 221.119 137.203C221.306 136.641 220.745 136.828 219.254 136.828C217.926 136.919 216.612 137.161 215.338 137.548C215.338 137.548 220.428 134.323 221.306 134.006C221.911 133.783 222.955 132.408 221.494 132.703C219.658 133.07 215.158 134.38 215.158 134.38L221.119 130.651C221.119 130.651 222.048 129.16 220.932 129.16C219.816 129.16 214.222 132.516 214.222 132.516L218.542 128.469C219.384 127.692 218.678 126.59 217.685 127.166L212.645 130.046C211.416 130.765 210.112 131.346 208.757 131.781L207.828 132.343C208.013 131.358 208.138 130.362 208.202 129.362C208.202 128.426 207.641 126.007 206.338 125.82C205.034 125.632 206.15 127.497 206.15 128.426C206.15 129.355 204.286 134.186 204.286 134.949V137.188C204.286 137.188 197.95 142.776 192.175 145.764C186.401 148.752 173.347 158.623 173.347 158.623C173.347 158.623 158.443 150.976 155.088 148.183C151.733 145.389 148.003 142.034 144.288 139.053C142.359 137.449 140.303 136.004 138.139 134.733L126.036 134.222Z" fill="white" stroke="#263238" stroke-width="0.745029" stroke-linecap="round" stroke-linejoin="round"/>
<path d="M188.316 148.067C181.987 152.114 173.369 158.637 173.369 158.637C173.369 158.637 158.465 150.99 155.11 148.197C151.754 145.403 148.025 142.048 144.31 139.067C142.38 137.463 140.324 136.018 138.161 134.747L126.05 134.193C126.05 134.193 124.927 131.766 124.927 130.276C124.927 128.786 124.207 121.701 124.207 121.701C124.207 121.701 129.787 111.621 134.035 104.529L133.697 104.183C131.609 102.102 128.722 100.979 126.202 100.367C122.688 103.485 119.196 106.487 117.122 108.1C112.082 112.01 111.535 115.185 110.786 119.094C110.038 123.004 109.296 145.734 109.296 153.95C109.296 162.165 110.016 175.19 110.599 179.481C111.182 183.772 110.16 189.359 109.44 192.369C108.72 195.378 109.44 197.956 111.492 199.446C113.544 200.937 122.292 201.873 129.564 201.873C136.836 201.873 144.288 201.153 146.527 200.382C148.766 199.612 150.48 199.439 150.48 196.466C150.48 193.492 148.99 187.523 148.99 185.846C148.99 184.168 151.978 166.838 151.978 166.838C151.978 166.838 170.986 172.598 174.528 171.309C176.414 170.589 185.76 162.309 194.047 154.749C192.539 152.206 190.6 149.945 188.316 148.067Z" fill="#032451" stroke="#263238" stroke-width="0.745029" stroke-linecap="round" stroke-linejoin="round"/>
<path d="M146.16 142.387C146.16 142.387 138.658 144.432 138.24 150.112" stroke="#263238" stroke-width="0.745029" stroke-linecap="round" stroke-linejoin="round"/>
<path d="M151.92 166.838C151.92 166.838 143.179 164.433 138.636 159.883" stroke="#263238" stroke-width="0.745029" stroke-linecap="round" stroke-linejoin="round"/>
<path d="M147.067 165.6C147.067 165.6 139.565 167.644 132.746 164.923" stroke="#263238" stroke-width="0.745029" stroke-linecap="round" stroke-linejoin="round"/>
<path d="M115.416 153.525C115.416 153.525 117.785 170.085 129.204 178.337" stroke="#263238" stroke-width="0.745029" stroke-linecap="round" stroke-linejoin="round"/>
<path d="M132.804 182.88C133.675 183.117 134.575 183.326 135.504 183.492" stroke="#263238" stroke-width="0.745029" stroke-linecap="round" stroke-linejoin="round"/>
<path d="M115.416 170.063C118.609 174.827 123.023 178.647 128.196 181.123" stroke="#263238" stroke-width="0.745029" stroke-linecap="round" stroke-linejoin="round"/>
<path d="M113.206 133.3C113.206 133.3 120.478 129.7 124.798 133.07" stroke="#263238" stroke-width="0.745029" stroke-linecap="round" stroke-linejoin="round"/>
<path d="M115.25 116.712C115.25 116.712 121.845 118.987 123.66 123.53" stroke="#263238" stroke-width="0.745029" stroke-linecap="round" stroke-linejoin="round"/>
<path d="M119.57 115.12C121.148 116.394 122.266 118.149 122.753 120.117" stroke="#263238" stroke-width="0.745029" stroke-linecap="round" stroke-linejoin="round"/>
<path d="M150.631 104.4C150.631 104.4 151.754 110.736 151.754 112.413C151.754 114.091 149.889 114.653 150.631 116.885C151.373 119.117 153.057 119.311 152.683 121.205C152.309 123.098 149.889 124.185 149.889 124.185C149.889 124.185 148.586 129.405 147.276 131.637C145.965 133.869 141.127 132.199 141.127 132.199L140.753 138.161C140.753 138.161 139.075 140.587 132.926 139.838C129.386 139.447 125.929 138.505 122.681 137.045L121.745 135.741C121.745 135.741 126.59 133.315 126.785 131.637C126.979 129.96 126.785 126.05 126.785 120.456C126.785 114.861 125.107 104.054 134.237 101.261C143.366 98.4669 150.631 104.4 150.631 104.4Z" fill="white" stroke="#263238" stroke-width="0.745029" stroke-linecap="round" stroke-linejoin="round"/>
<path d="M139.248 119.7C139.248 119.7 137.146 114.876 134.791 117.634C133.265 119.427 135.166 124.719 136.094 125.46C137.023 126.202 139.075 125.835 139.075 125.835C139.075 125.835 136.094 128.816 132.926 128.816C129.758 128.816 126.965 125.835 124.913 120.615C122.861 115.395 121.37 106.452 123.61 101.045C125.849 95.638 137.405 95.458 140.011 95.458C142.618 95.458 146.534 96.9484 146.534 96.9484C146.534 96.9484 154.922 96.2284 155.11 99.0004C155.297 101.772 153.986 101.981 153.986 101.981C153.986 101.981 159.955 105.149 157.154 106.452C154.354 107.756 150.077 107.014 147.276 107.014C146.526 106.971 145.779 107.139 145.121 107.501C144.462 107.863 143.919 108.403 143.554 109.059C143.554 109.059 146.16 110.736 145.231 111.485C144.302 112.234 140.911 113.717 140.573 115.028C140.234 116.338 141.876 118.383 140.753 119.348C139.63 120.312 139.248 119.7 139.248 119.7Z" fill="#263238" stroke="#263238" stroke-width="0.745029" stroke-linecap="round" stroke-linejoin="round"/>
<path d="M149.616 117.446C149.616 118.397 149.22 119.167 148.737 119.167C148.255 119.167 147.866 118.397 147.866 117.446C147.866 116.496 148.262 115.726 148.737 115.726C149.213 115.726 149.616 116.496 149.616 117.446Z" fill="#263238"/>
<path d="M146.563 115.25C146.563 115.25 147.765 112.442 149.673 113.946" stroke="#263238" stroke-width="0.745029" stroke-linecap="round" stroke-linejoin="round"/>
<path d="M130.306 226.677L128.599 223.509L120.082 221.32" stroke="white" stroke-width="0.745029" stroke-linecap="round" stroke-linejoin="round"/>
</svg>
