<svg width="21" height="21" viewBox="0 0 21 21" fill="none" xmlns="http://www.w3.org/2000/svg">
<path d="M4.60687 13.2195C4.53718 13.5167 4.50078 13.8207 4.49837 14.126C4.49837 15.1891 5.07413 15.8944 6.29913 15.8944C7.31413 15.8944 8.13838 15.2906 8.73163 14.3167L8.3685 15.7701H10.3845L11.5386 11.1501C11.8265 9.97937 12.3839 9.37213 13.2309 9.37213C13.8968 9.37213 14.3115 9.786 14.3115 10.4703C14.3142 10.69 14.2839 10.9088 14.2214 11.1195L13.6273 13.2431C13.5418 13.5359 13.4994 13.8394 13.5012 14.1444C13.5012 15.1515 14.0954 15.8909 15.3379 15.8909C16.4001 15.8909 17.2471 15.2075 17.7144 13.5686L16.9225 13.2624C16.5261 14.3605 16.184 14.5591 15.9145 14.5591C15.645 14.5591 15.4998 14.3789 15.4998 14.0184C15.5073 13.8294 15.5376 13.6419 15.5899 13.4601L16.1674 11.3899C16.2971 10.9644 16.3637 10.5222 16.3651 10.0774C16.3651 8.52775 15.4289 7.71925 14.2931 7.71925C13.2309 7.71925 12.1503 8.67825 11.6104 9.68713L12.0059 7.875H8.92763L8.4945 9.471H9.9365L9.04925 13.0191C8.35188 14.5679 7.07175 14.5932 6.91163 14.5574C6.64738 14.4979 6.47938 14.3973 6.47938 14.0534C6.48838 13.7746 6.53068 13.4979 6.60537 13.2291L7.95638 7.87063H4.536L4.10463 9.46663H5.5265L4.60687 13.2195ZM7.14612 6.75763C7.38417 6.75418 7.61588 6.68043 7.81214 6.54567C8.0084 6.41091 8.16044 6.22114 8.24916 6.00022C8.33787 5.77929 8.3593 5.53708 8.31075 5.30401C8.2622 5.07094 8.14584 4.85743 7.97629 4.6903C7.80674 4.52317 7.59158 4.4099 7.35783 4.36471C7.12409 4.31951 6.88221 4.34443 6.66258 4.43631C6.44296 4.5282 6.2554 4.68295 6.12347 4.88113C5.99155 5.0793 5.92115 5.31205 5.92112 5.55013C5.92158 5.71005 5.9537 5.86829 6.01564 6.01573C6.07758 6.16317 6.1681 6.29689 6.282 6.40915C6.39589 6.52142 6.53089 6.61001 6.6792 6.66982C6.82752 6.72963 6.98621 6.75947 7.14612 6.75763ZM0 0H21V21H0V0Z" fill="black"/>
</svg>
