<svg width="36" height="41" viewBox="0 0 36 41" fill="none" xmlns="http://www.w3.org/2000/svg">
<g filter="url(#filter0_d_1456_32)">
<rect x="6.85278" y="1.64062" width="27.2157" height="33.8289" rx="5.43779" transform="rotate(10.2137 6.85278 1.64062)" fill="white"/>
</g>
<rect x="6.49414" y="0.384766" width="28.6317" height="35.6347" rx="5.72807" transform="rotate(9.94223 6.49414 0.384766)" fill="#B1C9EF" fill-opacity="0.54"/>
<rect x="6.27856" width="29.2185" height="36.365" rx="5.84547" transform="rotate(9.94223 6.27856 0)" fill="#B1C9EF" fill-opacity="0.54"/>
<rect x="7.33203" y="1.75195" width="26.6763" height="33.1584" rx="5.33003" transform="rotate(10.2137 7.33203 1.75195)" fill="white"/>
<rect x="3.20767" y="5.81518" width="25.8771" height="32.1858" rx="5.14469" transform="rotate(-5.02224 3.20767 5.81518)" fill="url(#paint0_linear_1456_32)" stroke="url(#paint1_angular_1456_32)" stroke-width="0.0854416"/>
<path d="M17.0483 26.582L14.4531 19.1435L16.2156 19.1435L18.0752 24.9861L19.9765 19.1435L21.7251 19.1435L19.0189 26.582L17.0483 26.582Z" fill="white"/>
<path fill-rule="evenodd" clip-rule="evenodd" d="M12.5911 15.8096V24.2196H16.0667C16.7049 24.2196 17.2367 24.06 17.6621 23.7409C18.0876 23.4219 18.4066 22.9546 18.6194 22.3393C18.8321 21.7163 18.9384 20.9414 18.9384 20.0146C18.9384 19.3688 18.8891 18.7876 18.7903 18.271C18.6991 17.7544 18.5434 17.3138 18.3231 16.9491C18.1028 16.5769 17.8065 16.2958 17.4342 16.1059C17.0696 15.9083 16.6137 15.8096 16.0667 15.8096H12.5911ZM15.8444 22.9546H13.9927V17.0745H15.93C16.2035 17.0745 16.439 17.1201 16.6365 17.2112C16.8416 17.3024 17.0088 17.4581 17.1379 17.6785C17.2671 17.8988 17.3658 18.1989 17.4342 18.5787C17.5026 18.9586 17.5368 19.4372 17.5368 20.0146C17.5368 20.6375 17.4798 21.1693 17.3658 21.61C17.3391 21.7208 17.3083 21.8249 17.2733 21.9222L18.41 22.7368C18.1576 23.0889 17.8243 23.3777 17.429 23.5868C17.0336 23.7959 16.5841 23.9211 16.106 23.9553L15.8444 22.9546Z" fill="white"/>
<defs>
<filter id="filter0_d_1456_32" x="1.48063" y="2.43123" width="31.5302" height="36.8659" filterUnits="userSpaceOnUse" color-interpolation-filters="sRGB">
<feFlood flood-opacity="0" result="BackgroundImageFix"/>
<feColorMatrix in="SourceAlpha" type="matrix" values="0 0 0 0 0 0 0 0 0 0 0 0 0 0 0 0 0 0 127 0" result="hardAlpha"/>
<feOffset dy="0.164469"/>
<feGaussianBlur stdDeviation="0.125407"/>
<feComposite in2="hardAlpha" operator="out"/>
<feColorMatrix type="matrix" values="0 0 0 0 0.858824 0 0 0 0 0.835294 0 0 0 0 0.831373 0 0 0 0.25 0"/>
<feBlend mode="normal" in2="BackgroundImageFix" result="effect1_dropShadow_1456_32"/>
<feBlend mode="normal" in="SourceGraphic" in2="effect1_dropShadow_1456_32" result="shape"/>
</filter>
<linearGradient id="paint0_linear_1456_32" x1="9.7745" y1="24.4324" x2="30.3565" y2="8.17745" gradientUnits="userSpaceOnUse">
<stop offset="0.0857913" stop-color="#395886"/>
<stop offset="1" stop-color="#628ECB"/>
</linearGradient>
<radialGradient id="paint1_angular_1456_32" cx="0" cy="0" r="1" gradientUnits="userSpaceOnUse" gradientTransform="translate(16.1427 21.912) rotate(90) scale(16.1356 12.9813)">
<stop offset="0.357556" stop-color="#628ECB"/>
<stop offset="0.855828" stop-color="#314765"/>
</radialGradient>
</defs>
</svg>
