<svg width="109" height="109" viewBox="0 0 109 109" fill="none" xmlns="http://www.w3.org/2000/svg">
<path d="M49.4971 1.10171C52.6691 -0.367236 56.3309 -0.367236 59.5029 1.10171L106.041 22.6037C107.85 23.4339 109 25.2435 109 27.2447C109 29.2458 107.85 31.0554 106.041 31.8857L59.5029 53.3877C56.3309 54.8566 52.6691 54.8566 49.4971 53.3877L2.95918 31.8857C1.14961 31.0341 0 29.2246 0 27.2447C0 25.2648 1.14961 23.4339 2.95918 22.6037L49.4971 1.10171ZM94.715 44.6166L106.041 49.8537C107.85 50.6839 109 52.4935 109 54.4947C109 56.4959 107.85 58.3054 106.041 59.1357L59.5029 80.6376C56.3309 82.1066 52.6691 82.1066 49.4971 80.6376L2.95918 59.1357C1.14961 58.2841 0 56.4746 0 54.4947C0 52.5148 1.14961 50.6839 2.95918 49.8537L14.285 44.6166L46.6443 59.5615C49.1074 60.6976 51.7876 61.2859 54.5 61.2859C57.2124 61.2859 59.8926 60.6976 62.3557 59.5615L94.715 44.6166ZM62.3557 86.8115L94.715 71.8666L106.041 77.1037C107.85 77.9339 109 79.7435 109 81.7447C109 83.7459 107.85 85.5554 106.041 86.3857L59.5029 107.888C56.3309 109.357 52.6691 109.357 49.4971 107.888L2.95918 86.3857C1.14961 85.5341 0 83.7246 0 81.7447C0 79.7648 1.14961 77.9339 2.95918 77.1037L14.285 71.8666L46.6443 86.8115C49.1074 87.9476 51.7876 88.5359 54.5 88.5359C57.2124 88.5359 59.8926 87.9476 62.3557 86.8115Z" fill="url(#paint0_linear_1393_691)"/>
<defs>
<linearGradient id="paint0_linear_1393_691" x1="52.3366" y1="0.315576" x2="82" y2="151.5" gradientUnits="userSpaceOnUse">
<stop stop-color="#4294FF"/>
<stop offset="0.613611" stop-color="#376CFB"/>
</linearGradient>
</defs>
</svg>
