<svg width="18" height="19" viewBox="0 0 18 19" fill="none" xmlns="http://www.w3.org/2000/svg">
<path d="M3.10399 3.28988C3.68726 3.76368 3.90618 3.72772 5.00235 3.65422L15.3346 3.03421C15.5536 3.03421 15.3714 2.81529 15.2987 2.77932L13.5817 1.53851C13.2533 1.28362 12.8147 0.991205 11.975 1.06392L1.97107 1.79418C1.60672 1.83014 1.53323 2.0131 1.67866 2.15852L3.10399 3.28988ZM3.724 5.69801V16.569C3.724 17.153 4.01564 17.372 4.67318 17.3352L16.0281 16.6785C16.6857 16.6425 16.7592 16.2406 16.7592 15.766V4.96775C16.7592 4.49394 16.577 4.23827 16.1744 4.27424L4.30805 4.96775C3.87021 5.0045 3.724 5.2242 3.724 5.69801ZM14.9335 6.28049C15.0063 6.60888 14.9335 6.93726 14.6052 6.97479L14.0579 7.08425V15.1093C13.5825 15.3649 13.1446 15.5111 12.7795 15.5111C12.1947 15.5111 12.0485 15.3282 11.6106 14.7817L8.03206 9.16321V14.5987L9.16419 14.8552C9.16419 14.8552 9.16419 15.5119 8.25098 15.5119L5.73182 15.6573C5.65911 15.5119 5.73182 15.1468 5.98749 15.0741L6.64425 14.8919V7.70426L5.73339 7.63077C5.65989 7.30239 5.84285 6.82858 6.3534 6.79183L9.05551 6.60966L12.7803 12.3008V7.26564L11.8303 7.15696C11.7576 6.75508 12.0493 6.46345 12.4144 6.42748L14.9335 6.28049ZM1.13135 0.809032L11.5379 0.0428084C12.8155 -0.0666521 13.1446 0.00606092 13.9476 0.590111L17.2697 2.92475C17.817 3.32584 18 3.4353 18 3.87314V16.6785C18 17.4806 17.7084 17.956 16.6865 18.028L4.60047 18.7582C3.83425 18.795 3.46833 18.6855 3.06646 18.1742L0.620016 14.9998C0.182174 14.4158 0 13.9787 0 13.4674V2.08503C0 1.42905 0.292416 0.880963 1.13135 0.809032Z" fill="black"/>
</svg>
