<svg width="14" height="15" viewBox="0 0 14 15" fill="none" xmlns="http://www.w3.org/2000/svg">
<path d="M11.75 11.4221C12.0938 11.594 12.4036 11.8049 12.6797 12.0549C12.9557 12.3049 13.1901 12.5836 13.3828 12.8909C13.5755 13.1982 13.7266 13.5315 13.8359 13.8909C13.9453 14.2502 14 14.62 14 15.0002H13C13 14.5888 12.9219 14.2008 12.7656 13.8362C12.6094 13.4716 12.3958 13.1539 12.125 12.8831C11.8542 12.6122 11.5339 12.3961 11.1641 12.2346C10.7943 12.0732 10.4062 11.995 10 12.0002C9.58333 12.0002 9.19531 12.0784 8.83594 12.2346C8.47656 12.3909 8.15885 12.6044 7.88281 12.8752C7.60677 13.1461 7.39062 13.4664 7.23438 13.8362C7.07812 14.206 7 14.594 7 15.0002H6C6 14.62 6.05208 14.2502 6.15625 13.8909C6.26042 13.5315 6.41146 13.1982 6.60938 12.8909C6.80729 12.5836 7.04427 12.3049 7.32031 12.0549C7.59635 11.8049 7.90625 11.594 8.25 11.4221C7.85938 11.1409 7.55469 10.7893 7.33594 10.3674C7.11719 9.94556 7.00521 9.48983 7 9.00024C7 8.58879 6.92188 8.20076 6.76562 7.83618C6.60938 7.4716 6.39583 7.15389 6.125 6.88306C5.85417 6.61222 5.53385 6.39608 5.16406 6.23462C4.79427 6.07316 4.40625 5.99504 4 6.00024C3.58333 6.00024 3.19531 6.07837 2.83594 6.23462C2.47656 6.39087 2.15885 6.60441 1.88281 6.87524C1.60677 7.14608 1.39062 7.46639 1.23438 7.83618C1.07812 8.20597 1 8.59399 1 9.00024H0C0 8.62004 0.0520833 8.25024 0.15625 7.89087C0.260417 7.53149 0.411458 7.19816 0.609375 6.89087C0.807292 6.58358 1.04427 6.30493 1.32031 6.05493C1.59635 5.80493 1.90625 5.59399 2.25 5.42212C1.85938 5.14087 1.55469 4.78931 1.33594 4.36743C1.11719 3.94556 1.00521 3.48983 1 3.00024C1 2.58879 1.07812 2.20076 1.23438 1.83618C1.39062 1.4716 1.60417 1.15389 1.875 0.883057C2.14583 0.612223 2.46354 0.396077 2.82812 0.234619C3.19271 0.0731608 3.58333 -0.00496419 4 0.000244141C4.41146 0.000244141 4.79948 0.0783691 5.16406 0.234619C5.52865 0.390869 5.84635 0.604411 6.11719 0.875244C6.38802 1.14608 6.60417 1.46639 6.76562 1.83618C6.92708 2.20597 7.00521 2.59399 7 3.00024C7 3.48983 6.89062 3.94556 6.67188 4.36743C6.45312 4.78931 6.14583 5.14087 5.75 5.42212C6.14583 5.62004 6.5 5.87524 6.8125 6.18774C7.125 6.50024 7.38021 6.85441 7.57812 7.25024C7.85938 6.85962 8.21094 6.55493 8.63281 6.33618C9.05469 6.11743 9.51042 6.00545 10 6.00024C10.4115 6.00024 10.7995 6.07837 11.1641 6.23462C11.5286 6.39087 11.8464 6.60441 12.1172 6.87524C12.388 7.14608 12.6042 7.46639 12.7656 7.83618C12.9271 8.20597 13.0052 8.59399 13 9.00024C13 9.48983 12.8906 9.94556 12.6719 10.3674C12.4531 10.7893 12.1458 11.1409 11.75 11.4221ZM4 5.00024C4.27604 5.00024 4.53385 4.94816 4.77344 4.84399C5.01302 4.73983 5.22656 4.5966 5.41406 4.41431C5.60156 4.23202 5.74479 4.02108 5.84375 3.78149C5.94271 3.54191 5.99479 3.28149 6 3.00024C6 2.7242 5.94792 2.46639 5.84375 2.22681C5.73958 1.98722 5.59635 1.77368 5.41406 1.58618C5.23177 1.39868 5.02083 1.25545 4.78125 1.15649C4.54167 1.05754 4.28125 1.00545 4 1.00024C3.72396 1.00024 3.46615 1.05233 3.22656 1.15649C2.98698 1.26066 2.77344 1.40389 2.58594 1.58618C2.39844 1.76847 2.25521 1.97941 2.15625 2.21899C2.05729 2.45858 2.00521 2.71899 2 3.00024C2 3.27629 2.05208 3.5341 2.15625 3.77368C2.26042 4.01327 2.40365 4.22681 2.58594 4.41431C2.76823 4.60181 2.97917 4.74504 3.21875 4.84399C3.45833 4.94295 3.71875 4.99504 4 5.00024ZM10 11.0002C10.276 11.0002 10.5339 10.9482 10.7734 10.844C11.013 10.7398 11.2266 10.5966 11.4141 10.4143C11.6016 10.232 11.7448 10.0211 11.8438 9.78149C11.9427 9.54191 11.9948 9.28149 12 9.00024C12 8.7242 11.9479 8.46639 11.8438 8.22681C11.7396 7.98722 11.5964 7.77368 11.4141 7.58618C11.2318 7.39868 11.0208 7.25545 10.7812 7.15649C10.5417 7.05754 10.2812 7.00545 10 7.00024C9.72396 7.00024 9.46615 7.05233 9.22656 7.15649C8.98698 7.26066 8.77344 7.40389 8.58594 7.58618C8.39844 7.76847 8.25521 7.97941 8.15625 8.21899C8.05729 8.45858 8.00521 8.71899 8 9.00024C8 9.27629 8.05208 9.5341 8.15625 9.77368C8.26042 10.0133 8.40365 10.2268 8.58594 10.4143C8.76823 10.6018 8.97917 10.745 9.21875 10.844C9.45833 10.943 9.71875 10.995 10 11.0002ZM11 2.00024H8V1.00024H12V5.00024H11V2.00024Z" fill="white"/>
</svg>
