<svg width="15" height="15" viewBox="0 0 15 15" fill="none" xmlns="http://www.w3.org/2000/svg">
<path fill-rule="evenodd" clip-rule="evenodd" d="M4.73785 10.2628C7.62589 13.1509 10.3021 13.4671 11.0878 13.4964C12.0372 13.5309 13.0061 12.7558 13.4253 11.9619C12.7568 11.1777 11.8862 10.5693 10.9331 9.90981C10.3705 10.4716 9.67719 11.5157 8.75406 11.1416C8.22903 10.9306 6.93261 10.3334 5.79992 9.2C4.66724 8.06657 4.0701 6.77089 3.85754 6.24661C3.48348 5.32199 4.53054 4.62721 5.09312 4.06462C4.43364 3.09568 3.83576 2.20261 3.05309 1.56791C2.2479 1.98854 1.46824 2.94997 1.50354 3.91215C1.53283 4.69781 1.84905 7.37404 4.73785 10.2628ZM11.0322 14.9979C9.95059 14.9581 6.88529 14.5344 3.67502 11.3249C0.465498 8.11464 0.0426198 5.05009 0.00205956 3.96773C-0.0580297 2.31828 1.20535 0.716147 2.66477 0.0904675C2.84051 0.0145799 3.03296 -0.0143128 3.22324 0.00662454C3.41352 0.0275619 3.59509 0.0976099 3.75013 0.209895C4.95792 1.09095 5.79091 2.42569 6.50672 3.47124C6.65563 3.68865 6.72385 3.95128 6.69957 4.21368C6.67529 4.47607 6.56005 4.72173 6.37378 4.90813L5.35526 5.92739C5.59187 6.44942 6.07333 7.34925 6.862 8.13793C7.65067 8.9266 8.55051 9.40806 9.07329 9.64466L10.0911 8.62615C10.2779 8.43909 10.5247 8.32372 10.788 8.30024C11.0514 8.27676 11.3147 8.34666 11.5317 8.49771C12.5983 9.23681 13.8511 10.0578 14.7645 11.2273C14.8859 11.3834 14.9631 11.5693 14.9881 11.7655C15.0131 11.9618 14.9849 12.1611 14.9065 12.3427C14.2778 13.8096 12.6869 15.0587 11.0322 14.9979Z" fill="#2C3E50"/>
</svg>
