<svg width="156" height="282" viewBox="0 0 156 282" fill="none" xmlns="http://www.w3.org/2000/svg">
<g filter="url(#filter0_f_1395_721)">
<path fill-rule="evenodd" clip-rule="evenodd" d="M214.279 86.1696L215.648 88.0174L216.99 89.8836L218.304 91.767L219.589 93.6664L220.845 95.5806L222.071 97.5085L223.266 99.4488L224.428 101.4L225.559 103.362L226.655 105.332L227.718 107.311L228.746 109.295L229.738 111.285L230.694 113.279L231.612 115.276L232.493 117.275L233.336 119.274L234.139 121.273L234.903 123.27L235.626 125.264L236.309 127.253L236.95 129.238L237.549 131.216L238.105 133.187L238.619 135.149L239.089 137.101L239.514 139.042L239.896 140.971L240.232 142.888L240.523 144.79L240.768 146.677L240.968 148.548L241.121 150.401L241.227 152.237L241.286 154.053L241.298 155.849L241.262 157.624L241.178 159.377L241.047 161.106L240.867 162.812L240.64 164.493L240.363 166.149L240.039 167.778L239.666 169.38L239.244 170.953L238.773 172.498L238.254 174.013L237.687 175.497L237.071 176.951L236.406 178.372L235.694 179.762L234.933 181.118L234.124 182.44L233.267 183.728L232.363 184.981L231.411 186.199L230.412 187.38L229.367 188.526L228.275 189.634L227.137 190.705L225.953 191.738L224.724 192.733L223.451 193.689L222.132 194.606L220.77 195.484L219.364 196.323L217.916 197.122L216.424 197.881L214.892 198.6L213.318 199.278L211.703 199.916L210.048 200.513L208.355 201.069L206.622 201.585L204.852 202.06L203.045 202.493L201.202 202.886L199.322 203.239L197.409 203.55L195.461 203.82L193.48 204.05L191.467 204.24L189.423 204.389L187.348 204.499L185.244 204.568L183.112 204.598L180.952 204.588L178.765 204.539L176.553 204.452L174.316 204.326L172.056 204.162L169.773 203.961L167.469 203.722L165.145 203.447L162.802 203.135L160.44 202.787L158.061 202.404L155.667 201.985L153.258 201.533L150.835 201.047L148.4 200.528L145.954 199.976L143.497 199.392L141.032 198.777L138.559 198.131L136.08 197.455L133.596 196.75L131.108 196.016L128.617 195.254L126.124 194.465L123.631 193.65L121.139 192.809L118.65 191.943L116.164 191.053L113.682 190.14L111.207 189.205L108.738 188.248L106.279 187.27L103.829 186.272L101.39 185.255L98.9626 184.22L96.5492 183.167L94.1504 182.098L91.7676 181.013L89.4019 179.914L87.0546 178.801L84.7268 177.675L82.4199 176.537L80.1349 175.388L77.8732 174.229L75.6358 173.06L73.4239 171.884L71.2388 170.699L69.0815 169.509L66.9532 168.313L64.855 167.112L62.788 165.907L60.7534 164.7L58.7522 163.491L56.7855 162.281L54.8543 161.07L52.9597 159.861L51.1028 158.653L49.2844 157.448L47.5057 156.246L45.7675 155.049L44.0708 153.857L42.4166 152.671L40.8057 151.492L39.2391 150.321L37.7176 149.158L36.242 148.005L34.8132 146.862L33.4321 145.73L32.0993 144.609L30.8156 143.502L29.5817 142.408L28.3984 141.328L27.2664 140.262L26.1862 139.213L25.1586 138.179L24.1841 137.163L23.2633 136.164L22.3968 135.183L21.585 134.221L20.8286 133.279L20.1279 132.357L19.4833 131.456L18.8954 130.576L18.3645 129.717L17.8909 128.881L17.475 128.068L17.117 127.278L16.8173 126.512L16.576 125.77L16.3935 125.053L16.2698 124.361L16.2051 123.695L16.1995 123.054L16.2531 122.44L16.366 121.852L16.5382 121.29L16.7697 120.756L17.0605 120.249L17.4104 119.77L17.8195 119.319L18.2875 118.895L18.8143 118.5L19.3997 118.132L20.0436 117.793L20.7456 117.483L21.5055 117.201L22.323 116.948L23.1977 116.723L24.1293 116.527L25.1174 116.36L26.1615 116.221L27.2612 116.11L28.4159 116.028L29.6253 115.975L30.8887 115.949L32.2056 115.951L33.5754 115.982L34.9974 116.039L36.471 116.125L37.9955 116.237L39.5702 116.377L41.1944 116.543L42.8673 116.735L44.5881 116.953L46.356 117.197L48.1702 117.466L50.0298 117.761L51.9339 118.079L53.8817 118.422L55.8721 118.788L57.9043 119.178L59.9772 119.59L62.0898 120.025L64.2412 120.481L66.4304 120.958L68.6561 121.456L70.9174 121.974L73.2132 122.512L75.5423 123.068L77.9037 123.643L80.2961 124.235L82.7184 124.844L85.1694 125.47L87.6479 126.112L90.1528 126.768L92.6827 127.439L95.2365 128.124L97.8128 128.822L100.41 129.532L103.028 130.253L105.665 130.986L108.319 131.728L110.989 132.48L113.674 133.24L116.372 134.008L119.083 134.783L121.804 135.565L124.535 136.352L127.274 137.144L130.02 137.939L132.772 138.738L135.527 139.539L138.286 140.342L141.045 141.146L143.805 141.949L146.564 142.752L149.319 143.553L152.071 144.352L154.817 145.147L157.556 145.939L160.288 146.726L163.01 147.507L165.721 148.282L168.419 149.05L171.105 149.81L173.775 150.561L176.43 151.303L179.067 152.035L181.685 152.756L184.283 153.466L186.86 154.163L189.415 154.847L191.946 155.517L194.451 156.173L196.931 156.814L199.382 157.439L201.806 158.048L204.199 158.64L206.561 159.214L208.891 159.769L211.188 160.306L213.451 160.823L215.678 161.32L217.868 161.797L220.02 162.252L222.134 162.686L224.209 163.097L226.242 163.486L228.234 163.851L230.183 164.193L232.088 164.51L233.949 164.803L235.765 165.072L237.534 165.314L239.257 165.532L240.931 165.723L242.557 165.887L244.133 166.026L245.659 166.137L247.135 166.221L248.558 166.278L249.93 166.306L251.248 166.308L252.514 166.281L253.725 166.226L254.881 166.142L255.983 166.03L257.029 165.89L258.019 165.721L258.952 165.524L259.829 165.298L260.648 165.043L261.41 164.76L262.114 164.448L262.76 164.107L263.348 163.739L263.876 163.342L264.347 162.916L264.758 162.463L265.11 161.982L265.402 161.474L265.636 160.938L265.81 160.375L265.925 159.786L265.981 159.17L265.978 158.527L265.915 157.859L265.794 157.166L265.613 156.447L265.374 155.704L265.077 154.936L264.721 154.145L264.307 153.33L263.836 152.492L263.307 151.632L262.721 150.75L262.079 149.847L261.38 148.924L260.626 147.98L259.817 147.016L258.952 146.034L258.034 145.033L257.061 144.015L256.036 142.98L254.958 141.929L253.828 140.862L252.647 139.78L251.415 138.684L250.134 137.575L248.803 136.453L247.424 135.32L245.997 134.175L244.524 133.021L243.004 131.856L241.44 130.683L239.831 129.503L238.179 128.315L236.484 127.122L234.748 125.923L232.971 124.72L231.155 123.513L229.3 122.304L227.407 121.093L225.478 119.881L223.513 118.669L221.514 117.459L219.481 116.25L217.416 115.044L215.32 113.842L213.193 112.644L211.038 111.452L208.854 110.267L206.644 109.089L204.409 107.919L202.149 106.759L199.865 105.609L197.56 104.469L195.234 103.342L192.888 102.228L190.524 101.127L188.143 100.042L185.745 98.9716L183.333 97.9179L180.908 96.8816L178.47 95.8636L176.021 94.8647L173.563 93.8857L171.096 92.9276L168.622 91.9911L166.141 91.0771L163.657 90.1864L161.168 89.3197L158.677 88.478L156.186 87.6619L153.694 86.8723L151.204 86.1098L148.717 85.3753L146.233 84.6694L143.755 83.9928L141.283 83.3463L138.819 82.7305L136.363 82.146L133.918 81.5935L131.483 81.0737L129.061 80.587L126.653 80.1341L124.259 79.7156L121.881 79.332L119.52 78.9838L117.177 78.6716L114.853 78.3957L112.549 78.1566L110.267 77.9548L108.007 77.7908L105.77 77.6648L103.558 77.5772L101.372 77.5284L99.212 77.5187L97.0796 77.5484L94.9756 77.6177L92.901 77.727L90.8568 77.8763L88.8438 78.0659L86.8629 78.2961L84.915 78.5668L83.001 78.8783L81.1217 79.2305L79.2779 79.6237L77.4703 80.0577L75.6998 80.5327L73.9671 81.0486L72.2729 81.6053L70.6179 82.2028L69.0028 82.841L67.4282 83.5198L65.8947 84.239L64.403 84.9984L62.9537 85.7978L61.5472 86.637L60.1842 87.5158L58.865 88.4338L57.5903 89.3907L56.3604 90.3863L55.1758 91.42L54.0369 92.4916L52.944 93.6006L51.8975 94.7465L50.8978 95.929L49.9451 97.1475L49.0397 98.4014L48.1818 99.6903L47.3717 101.014L46.6095 102.371L45.8955 103.761L45.2297 105.183L44.6124 106.638L44.0434 108.123L43.523 109.639L43.0512 111.185L42.6279 112.76L42.2532 114.363L41.927 115.993L41.6493 117.649L41.4199 119.332L41.2387 121.039L41.1057 122.77L41.0205 124.524L40.9831 126.3L40.9932 128.097L41.0505 129.915L41.1549 131.752L41.3059 133.606L41.5034 135.479L41.7469 137.367L42.0361 139.271L42.3706 141.188L42.75 143.119L43.1738 145.062L43.6417 147.015L44.1532 148.979L44.7077 150.951L45.3047 152.931L45.9438 154.917L46.6243 156.908L47.3456 158.903L48.1073 160.902L48.9087 162.902L49.7491 164.903L50.6279 166.903L51.5444 168.902L52.498 170.897L53.4879 172.889L54.5135 174.875L55.574 176.855L56.6686 178.827L57.7966 180.79L58.9573 182.744L60.1498 184.685L61.3734 186.615L62.6272 188.531L63.9104 190.432L65.2222 192.317L66.5617 194.185L67.928 196.034L69.3204 197.864L70.7378 199.674L72.1796 201.461L73.6446 203.226L75.1321 204.966L76.6412 206.681L78.1708 208.37L79.7202 210.031L81.2884 211.664L82.8744 213.267L84.4773 214.84L86.0961 216.381L87.7301 217.889L89.3781 219.363L91.0392 220.803L92.7126 222.207L94.3972 223.574L96.0921 224.903L97.7964 226.194L99.5091 227.445L101.229 228.656L102.956 229.826L104.688 230.953L106.425 232.038L108.166 233.078L109.909 234.075L111.654 235.025L113.4 235.93L115.147 236.788L116.892 237.598L118.636 238.361L120.376 239.074L122.114 239.739L123.846 240.353L125.574 240.917L127.295 241.429L129.01 241.891L130.716 242.3L132.414 242.656L134.102 242.96L135.78 243.211L137.447 243.408L139.101 243.551L140.744 243.639L142.372 243.674L143.987 243.653L145.586 243.578L147.17 243.447L148.738 243.261L150.289 243.02L151.822 242.723L153.336 242.371L154.832 241.964L156.308 241.501L157.763 240.982L159.198 240.408L160.612 239.779L162.003 239.095L163.372 238.356L164.718 237.562L166.041 236.714L167.339 235.811L168.613 234.855L169.862 233.845L171.085 232.782L172.283 231.666L173.455 230.498L174.6 229.278L175.718 228.007L176.809 226.685L177.872 225.313L178.907 223.891L179.914 222.419L180.893 220.9L181.843 219.333L182.764 217.718L183.656 216.058L184.518 214.352L185.352 212.601L186.155 210.806L186.929 208.968L187.673 207.088L188.387 205.167L189.071 203.206L189.725 201.204L190.349 199.165L190.943 197.088L191.506 194.975L192.04 192.826L192.543 190.643L193.017 188.427L193.461 186.179L193.875 183.9L194.259 181.591L194.613 179.254L194.939 176.889L195.235 174.498L195.502 172.082L195.74 169.642L195.949 167.18L196.13 164.697L196.283 162.194L196.408 159.672L196.506 157.133L196.576 154.578L196.619 152.009L196.635 149.427L196.625 146.833L196.589 144.228L196.527 141.614L196.44 138.993L196.328 136.365L196.192 133.733L196.032 131.097L195.848 128.46L195.64 125.821L195.41 123.184L195.158 120.549L194.883 117.918L194.588 115.292L194.271 112.672L193.934 110.061L193.577 107.459L193.201 104.868L192.806 102.29L192.392 99.7251L191.961 97.1756L191.512 94.6427L191.046 92.1278L190.565 89.6323L190.067 87.1577L189.555 84.7053L189.028 82.2765L188.487 79.8726L187.932 77.495L187.365 75.145L186.785 72.8239L186.194 70.5332L185.591 68.274L184.978 66.0476L184.355 63.8554L183.722 61.6985L183.081 59.5782L182.431 57.4957L181.774 55.4522L181.11 53.4489L180.439 51.4869L179.761 49.5673L179.079 47.6913L178.392 45.86L177.7 44.0744L177.004 42.3356L176.306 40.6446L175.604 39.0023L174.901 37.4098L174.196 35.868L173.489 34.3777L172.782 32.94L172.076 31.5556L171.369 30.2253L170.664 28.9501L169.959 27.7305L169.257 26.5675L168.558 25.4617L167.861 24.4137L167.167 23.4243L166.477 22.494L165.792 21.6235L165.11 20.8132L164.434 20.0638L163.764 19.3757L163.099 18.7493L162.441 18.1851L161.789 17.6835L161.144 17.2448L160.506 16.8693L159.876 16.5573L159.254 16.3091L158.641 16.1249L158.036 16.0049L157.44 15.9491L156.853 15.9578L156.275 16.031L155.707 16.1687L155.149 16.3709L154.601 16.6377L154.064 16.9688L153.537 17.3643L153.021 17.824L152.516 18.3476L152.022 18.9351L151.539 19.5861L151.068 20.3004L150.608 21.0776L150.16 21.9174L149.723 22.8195L149.298 23.7833L148.885 24.8084L148.484 25.8944L148.095 27.0407L147.717 28.2468L147.352 29.512L146.999 30.8357L146.657 32.2174L146.328 33.6562L146.01 35.1515L145.705 36.7025L145.411 38.3085L145.128 39.9686L144.858 41.6819L144.598 43.4476L144.35 45.2649L144.114 47.1327L143.888 49.05L143.674 51.016L143.47 53.0296L143.277 55.0897L143.094 57.1953L142.921 59.3453L142.759 61.5385L142.606 63.7738L142.463 66.0501L142.329 68.3661L142.204 70.7207L142.088 73.1125L141.981 75.5404L141.882 78.0031L141.791 80.4992L141.708 83.0275L141.632 85.5866L141.563 88.1752L141.501 90.7918L141.446 93.4352L141.397 96.1039L141.353 98.7965L141.315 101.512L141.282 104.248L141.255 107.003L141.231 109.777L141.212 112.568L141.196 115.373L141.184 118.192L141.174 121.024L141.168 123.866L141.163 126.717L141.161 129.576L141.16 132.441L141.16 135.311L141.161 138.184L141.162 141.058L141.163 143.932L141.164 146.805L141.164 149.675L141.163 152.54L141.16 155.399L141.156 158.251L141.149 161.093L141.139 163.925L141.126 166.744L141.11 169.55L141.091 172.341L141.067 175.115L141.038 177.871L141.005 180.608L140.966 183.323L140.922 186.016L140.872 188.686L140.816 191.329L140.754 193.947L140.684 196.536L140.607 199.096L140.523 201.625L140.431 204.121L140.331 206.585L140.223 209.013L140.106 211.406L139.98 213.761L139.845 216.078L139.701 218.355L139.547 220.591L139.383 222.786L139.21 224.936L139.026 227.043L138.831 229.104L138.626 231.119L138.41 233.086L138.183 235.004L137.945 236.873L137.696 238.691L137.435 240.458L137.163 242.173L136.879 243.834L136.583 245.441L136.276 246.993L135.957 248.49L135.626 249.93L135.282 251.313L134.927 252.638L134.56 253.904L134.181 255.112L133.79 256.259L133.387 257.347L132.973 258.373L132.546 259.338L132.107 260.242L131.657 261.083L131.195 261.862L130.722 262.577L130.237 263.23L129.741 263.819L129.234 264.344L128.716 264.805L128.187 265.202L127.648 265.535L127.098 265.803L126.538 266.007L125.968 266.146L125.388 266.221L124.799 266.231L124.201 266.177L123.594 266.059L122.978 265.876L122.354 265.63L121.722 265.319L121.082 264.945L120.435 264.508L119.781 264.008L119.12 263.446L118.453 262.821L117.78 262.134L117.102 261.387L116.419 260.578L115.731 259.709L115.039 258.781L114.343 257.793L113.644 256.747L112.942 255.642L112.238 254.481L111.532 253.263L110.824 251.989L110.115 250.661L109.406 249.278L108.697 247.842L107.989 246.353L107.281 244.813L106.576 243.222L105.872 241.582L105.171 239.892L104.474 238.155L103.78 236.371L103.09 234.541L102.406 232.667L101.727 230.749L101.054 228.788L100.387 226.786L99.7277 224.744L99.0761 222.663L98.4327 220.545L97.7983 218.389L97.1732 216.198L96.5582 213.973L95.9538 211.716L95.3606 209.426L94.7791 207.107L94.2099 204.758L93.6536 202.382L93.1107 199.979L92.5819 197.552L92.0677 195.101L91.5686 192.627L91.0852 190.133L90.618 187.619L90.1677 185.088L89.7346 182.539L89.3195 179.976L88.9227 177.398L88.5449 174.809L88.1865 172.208L87.848 169.598L87.53 166.979L87.233 164.354L86.9573 161.724L86.7035 159.09L86.4721 156.454L86.2636 153.817L86.0782 151.18L85.9166 148.545L85.7791 145.913L85.6661 143.287L85.5781 140.666L85.5153 138.053L85.4783 135.449L85.4673 132.856L85.4827 130.274L85.5248 127.706L85.594 125.152L85.6906 122.613L85.8148 120.092L85.967 117.59L86.1474 115.107L86.3562 112.645L86.5937 110.206L86.8601 107.791L87.1555 105.4L87.4803 103.035L87.8345 100.698L88.2183 98.3898L88.6318 96.111L89.0752 93.8631L89.5485 91.6473L90.0518 89.4645L90.5852 87.3161L91.1487 85.2029L91.7423 83.1261L92.3661 81.0868L93.02 79.0858L93.704 77.1241L94.4181 75.2028L95.1621 73.3228L95.9361 71.4849L96.7398 69.6901L97.5732 67.9391L98.436 66.2328L99.3283 64.572L100.25 62.9575L101.2 61.39L102.179 59.8702L103.187 58.3987L104.222 56.9763L105.286 55.6035L106.377 54.281L107.496 53.0093L108.642 51.7889L109.814 50.6203L111.012 49.504L112.237 48.4405L113.486 47.43L114.761 46.4731L116.06 45.57L117.384 44.7211L118.731 43.9266L120.101 43.1867L121.493 42.5017L122.908 41.8718L124.344 41.2971L125.801 40.7777L127.278 40.3137L128.774 39.9052L130.29 39.5522L131.824 39.2546L133.376 39.0124L134.945 38.8256L136.531 38.694L138.132 38.6175L139.748 38.5959L141.378 38.629L143.022 38.7166L144.678 38.8585L146.346 39.0542L148.026 39.3036L149.716 39.6062L151.415 39.9616L153.123 40.3695L154.839 40.8294L156.562 41.3408L158.291 41.9032L160.026 42.5161L161.765 43.179L163.508 43.8912L165.253 44.6522L167 45.4613L168.748 46.3178L170.496 47.2211L172.244 48.1704L173.989 49.1651L175.732 50.2043L177.47 51.2872L179.205 52.4131L180.933 53.5812L182.656 54.7905L184.37 56.0403L186.077 57.3295L187.774 58.6574L189.46 60.0229L191.136 61.4251L192.799 62.8631L194.449 64.3359L196.085 65.8424L197.706 67.3817L199.311 68.9527L200.899 70.5543L202.47 72.1856L204.021 73.8454L205.553 75.5326L207.064 77.2461L208.554 78.9849L210.021 80.7478L211.465 82.5336L212.885 84.3412L214.279 86.1696Z" stroke="url(#paint0_linear_1395_721)" stroke-opacity="0.4"/>
</g>
<defs>
<filter id="filter0_f_1395_721" x="0.699219" y="0.449219" width="280.782" height="281.282" filterUnits="userSpaceOnUse" color-interpolation-filters="sRGB">
<feFlood flood-opacity="0" result="BackgroundImageFix"/>
<feBlend mode="normal" in="SourceGraphic" in2="BackgroundImageFix" result="shape"/>
<feGaussianBlur stdDeviation="7.5" result="effect1_foregroundBlur_1395_721"/>
</filter>
<linearGradient id="paint0_linear_1395_721" x1="34.6767" y1="-0.670327" x2="255.819" y2="253.43" gradientUnits="userSpaceOnUse">
<stop stop-color="#395886"/>
<stop offset="1" stop-color="#0E1520"/>
</linearGradient>
</defs>
</svg>
