<svg width="16" height="16" viewBox="0 0 16 16" fill="none" xmlns="http://www.w3.org/2000/svg">
<path fill-rule="evenodd" clip-rule="evenodd" d="M13.0369 0.057964C13.174 0.114734 13.2911 0.210876 13.3736 0.334231C13.456 0.457586 13.5 0.602611 13.4999 0.750964V2.50096H15.2499C15.3982 2.50109 15.5431 2.54515 15.6663 2.62757C15.7895 2.70999 15.8855 2.82708 15.9422 2.96404C15.9989 3.101 16.0138 3.2517 15.9849 3.3971C15.956 3.5425 15.8847 3.67608 15.7799 3.78096L12.7799 6.78096C12.6394 6.92166 12.4488 7.00079 12.2499 7.00096H11.8729C12.0715 7.7702 12.0365 8.58114 11.7724 9.33042C11.5084 10.0797 11.0271 10.7334 10.3901 11.2081C9.75311 11.6828 8.98916 11.9571 8.19566 11.996C7.40216 12.0349 6.61505 11.8366 5.93468 11.4264C5.25431 11.0162 4.71149 10.4127 4.37542 9.69286C4.03935 8.97299 3.92526 8.16935 4.04768 7.38438C4.17011 6.59942 4.52351 5.86869 5.06283 5.28535C5.60215 4.70201 6.30297 4.29248 7.07593 4.10896C7.26954 4.06295 7.4735 4.09573 7.64294 4.20009C7.81238 4.30446 7.93342 4.47186 7.97943 4.66546C8.02545 4.85907 7.99267 5.06303 7.8883 5.23247C7.78394 5.40191 7.61654 5.52295 7.42293 5.56896C6.92319 5.68729 6.47202 5.95666 6.13075 6.34044C5.78949 6.72422 5.5747 7.20378 5.51558 7.71393C5.45647 8.22407 5.5559 8.74005 5.80035 9.1917C6.04481 9.64335 6.42243 10.0088 6.88187 10.2382C7.34131 10.4677 7.86027 10.5501 8.3682 10.4743C8.87613 10.3984 9.34838 10.168 9.72073 9.8143C10.0931 9.46061 10.3475 9.00082 10.4493 8.49746C10.5512 7.9941 10.4955 7.47158 10.2899 7.00096H10.0599L8.52993 8.53096C8.46127 8.60465 8.37847 8.66375 8.28647 8.70475C8.19447 8.74574 8.09516 8.76778 7.99446 8.76956C7.89375 8.77133 7.79372 8.75281 7.70034 8.71509C7.60695 8.67737 7.52211 8.62122 7.4509 8.55C7.37968 8.47878 7.32353 8.39395 7.28581 8.30056C7.24809 8.20717 7.22957 8.10715 7.23134 8.00644C7.23312 7.90574 7.25516 7.80643 7.29615 7.71443C7.33714 7.62243 7.39625 7.53963 7.46993 7.47096L8.99993 5.94096V3.75096C9.00011 3.55212 9.07924 3.36148 9.21993 3.22096L12.2199 0.220964C12.3247 0.116072 12.4583 0.0446048 12.6037 0.0155923C12.7491 -0.0134201 12.8999 0.00132493 13.0369 0.057964ZM10.4999 4.06196V5.50096H11.9399L13.4399 4.00096H11.9999V2.56096L10.4999 4.06196ZM4.81993 2.33096C5.9912 1.67397 7.33721 1.3959 8.67293 1.53496C8.7709 1.54514 8.86991 1.53592 8.96432 1.50784C9.05872 1.47975 9.14667 1.43334 9.22313 1.37127C9.2996 1.30919 9.3631 1.23266 9.40999 1.14605C9.45688 1.05943 9.48626 0.96443 9.49643 0.866464C9.50661 0.768498 9.49739 0.669486 9.46931 0.575083C9.44122 0.480679 9.39481 0.392732 9.33274 0.316263C9.27066 0.239794 9.19413 0.176301 9.10752 0.129408C9.0209 0.0825151 8.9259 0.0531415 8.82793 0.042964C7.1838 -0.128107 5.52705 0.214321 4.08545 1.02317C2.64386 1.83202 1.48821 3.06756 0.777408 4.55994C0.0666016 6.05231 -0.164463 7.72823 0.115983 9.35727C0.39643 10.9863 1.17462 12.4885 2.34355 13.6573C3.51248 14.826 5.01476 15.604 6.64385 15.8842C8.27293 16.1644 9.94881 15.9331 11.4411 15.2221C12.9334 14.5111 14.1687 13.3553 14.9774 11.9136C15.786 10.4719 16.1282 8.81507 15.9569 7.17096C15.9468 7.073 15.9174 6.978 15.8705 6.89138C15.8236 6.80477 15.7601 6.72824 15.6836 6.66616C15.6072 6.60409 15.5192 6.55768 15.4248 6.52959C15.3304 6.5015 15.2314 6.49229 15.1334 6.50246C15.0355 6.51264 14.9405 6.54202 14.8539 6.58891C14.7672 6.6358 14.6907 6.69929 14.6286 6.77576C14.5666 6.85223 14.5202 6.94018 14.4921 7.03458C14.464 7.12899 14.4548 7.228 14.4649 7.32596C14.5867 8.49269 14.3905 9.67064 13.8971 10.7349C13.4037 11.7992 12.6315 12.71 11.6623 13.371C10.6932 14.0319 9.56321 14.4183 8.39228 14.489C7.22134 14.5598 6.05308 14.3124 5.01136 13.773C3.96965 13.2337 3.09332 12.4224 2.4753 11.4253C1.85728 10.4283 1.5206 9.28254 1.50098 8.10963C1.48135 6.93672 1.77951 5.78037 2.36383 4.76318C2.94815 3.74599 3.79685 2.90589 4.81993 2.33196V2.33096Z" fill="#2C3E50"/>
</svg>
