<svg width="10" height="8" viewBox="0 0 10 8" fill="none" xmlns="http://www.w3.org/2000/svg">
<path d="M-7.24792e-05 3.98129C-7.24792e-05 3.78238 0.0789452 3.59161 0.219598 3.45096C0.36025 3.31031 0.551015 3.23129 0.749928 3.23129L6.68993 3.23129L4.71993 1.26129C4.58745 1.11912 4.51532 0.931071 4.51875 0.73677C4.52218 0.542469 4.60089 0.357083 4.73831 0.21967C4.87572 0.0822573 5.0611 0.00354433 5.2554 0.000116348C5.44971 -0.00331211 5.63775 0.0688119 5.77993 0.201292L9.02993 3.45129C9.17038 3.59192 9.24927 3.78254 9.24927 3.98129C9.24927 4.18004 9.17038 4.37067 9.02993 4.51129L5.77993 7.76129C5.71127 7.83498 5.62846 7.89408 5.53647 7.93507C5.44447 7.97606 5.34515 7.99811 5.24445 7.99988C5.14375 8.00166 5.04372 7.98314 4.95033 7.94541C4.85694 7.90769 4.77211 7.85155 4.70089 7.78033C4.62967 7.70911 4.57353 7.62428 4.5358 7.53089C4.49808 7.4375 4.47956 7.33747 4.48134 7.23677C4.48311 7.13607 4.50515 7.03675 4.54615 6.94475C4.58714 6.85275 4.64624 6.76995 4.71993 6.70129L6.68993 4.73129L0.749928 4.73129C0.335928 4.73129 -7.24792e-05 4.39529 -7.24792e-05 3.98129Z" fill="black"/>
</svg>
