<svg width="29" height="30" viewBox="0 0 29 30" fill="none" xmlns="http://www.w3.org/2000/svg">
<path d="M0.121211 14.4338C0.120418 16.9778 0.785039 19.4613 2.04858 21.6503L0 29.1299L7.65453 27.1229C9.7636 28.2728 12.1382 28.8791 14.5545 28.88H14.5607C22.5185 28.88 28.9966 22.404 29 14.4454C29.0014 10.5884 27.5006 6.96147 24.7746 4.23309C22.0483 1.50505 18.4233 0.00158594 14.5607 0C6.60158 0 0.124383 6.47516 0.121211 14.4338ZM4.67976 21.2733L4.39395 20.8196C3.19249 18.9092 2.55834 16.7016 2.55925 14.4348C2.56174 7.81969 7.94532 2.43781 14.5653 2.43781C17.7711 2.43917 20.7839 3.68889 23.05 5.95633C25.316 8.22399 26.5629 11.2384 26.5621 14.4445C26.5591 21.0596 21.1754 26.4421 14.5607 26.4421H14.556C12.4021 26.441 10.2898 25.8626 8.44761 24.7695L8.00921 24.5095L3.46686 25.7005L4.67976 21.2733Z" fill="url(#paint0_linear_1393_569)"/>
<path d="M2.11249 14.5645C2.11189 16.7419 2.68083 18.868 3.76266 20.742L2.00903 27.1447L8.56146 25.4267C10.3738 26.4132 12.4043 26.9302 14.4678 26.9304H14.4732C21.2851 26.9304 26.8301 21.3873 26.8331 14.5742C26.8344 11.2728 25.5498 8.16837 23.216 5.83275C20.8826 3.49733 17.7793 2.21049 14.4727 2.20898C7.66004 2.20898 2.11541 7.75171 2.1126 14.5645" fill="url(#paint1_linear_1393_569)"/>
<path d="M11.3416 9.15298C11.102 8.62031 10.8497 8.60956 10.6218 8.60022C10.4352 8.59218 10.2218 8.59278 10.0087 8.59278C9.79534 8.59278 9.44869 8.67304 9.15568 8.99297C8.86238 9.3132 8.03589 10.087 8.03589 11.661C8.03589 13.2349 9.1823 14.7561 9.34212 14.9697C9.50213 15.183 11.5553 18.5162 14.807 19.7986C17.5094 20.8642 18.0594 20.6523 18.6459 20.5988C19.2325 20.5456 20.5388 19.8252 20.8052 19.0782C21.0719 18.3312 21.0719 17.691 20.992 17.5572C20.912 17.4239 20.6987 17.3438 20.3787 17.1839C20.0588 17.024 18.4859 16.2499 18.1927 16.1432C17.8994 16.0365 17.6861 15.9832 17.4728 16.3036C17.2594 16.6234 16.6468 17.3438 16.4601 17.5572C16.2735 17.771 16.0868 17.7976 15.767 17.6376C15.4468 17.4771 14.4165 17.1397 13.1942 16.0499C12.2432 15.202 11.6011 14.1548 11.4145 13.8345C11.2278 13.5146 11.3945 13.3413 11.5549 13.1819C11.6986 13.0385 11.8749 12.8083 12.035 12.6216C12.1945 12.4347 12.2478 12.3014 12.3545 12.0881C12.4612 11.8745 12.4078 11.6877 12.3279 11.5277C12.2478 11.3677 11.6261 9.7855 11.3416 9.15298Z" fill="white"/>
<defs>
<linearGradient id="paint0_linear_1393_569" x1="1450" y1="2912.99" x2="1450" y2="0" gradientUnits="userSpaceOnUse">
<stop stop-color="#F9F9F9"/>
<stop offset="1" stop-color="white"/>
</linearGradient>
<linearGradient id="paint1_linear_1393_569" x1="1243.21" y1="2495.78" x2="1243.21" y2="2.20898" gradientUnits="userSpaceOnUse">
<stop offset="0.14" stop-color="#1FAF38"/>
</linearGradient>
</defs>
</svg>
