<svg width="23" height="22" viewBox="0 0 23 22" fill="none" xmlns="http://www.w3.org/2000/svg">
<path d="M3.99573 0C1.78632 0 0 1.78632 0 3.99573V18.0043C0 20.2137 1.78632 22 3.99573 22H18.5684C20.7778 22 22.5641 20.2137 22.5641 18.0043V3.99573C22.5641 1.78632 20.7778 0 18.5684 0H3.99573ZM17.2239 4.82308H19.1325C19.1795 4.81367 19.2171 4.85128 19.2265 4.88889V13.8581C19.2265 14.0274 19.2359 14.2154 19.2453 14.4222C19.2641 14.6197 19.2735 14.8077 19.2829 14.9675C19.2829 15.0333 19.2547 15.0897 19.1889 15.1179C18.7 15.3248 18.1829 15.4752 17.6564 15.5692C17.1769 15.6538 16.6974 15.7009 16.2085 15.7009C15.5128 15.7103 14.8171 15.5692 14.1872 15.2778C13.5949 15.0051 13.106 14.5538 12.7675 13.9991C12.4197 13.4256 12.2504 12.7111 12.2504 11.8556C12.2414 11.1533 12.424 10.4619 12.7785 9.85559C13.133 9.24931 13.646 8.7511 14.2624 8.41453C14.9205 8.04786 15.7103 7.86923 16.641 7.86923C16.688 7.86923 16.7538 7.86923 16.8385 7.87863C16.9231 7.88803 17.0171 7.88803 17.1299 7.89744V4.9265C17.1299 4.86068 17.1581 4.82308 17.2239 4.82308ZM3.45983 5.64103H5.59402C5.64103 5.64103 5.68803 5.65043 5.72564 5.65983C5.76325 5.67863 5.79145 5.70684 5.81966 5.74444C5.99829 6.14872 6.20513 6.55299 6.42137 6.95726C6.64701 7.36154 6.86325 7.75641 7.09829 8.15128C7.32393 8.54615 7.53077 8.94102 7.72821 9.3453H7.74701C7.94444 8.93162 8.15128 8.52735 8.35812 8.13248C8.56496 7.73761 8.7812 7.34273 8.99744 6.94786C9.21367 6.55299 9.42051 6.14872 9.62735 5.76325C9.63675 5.72564 9.65556 5.68803 9.68376 5.66923C9.72122 5.64936 9.76429 5.64274 9.80598 5.65043H11.7897C11.8368 5.64103 11.8838 5.66923 11.8932 5.71624C11.9026 5.72564 11.8838 5.76325 11.865 5.78205L9.04444 10.4359L12.053 15.3718C12.0718 15.4094 12.0812 15.447 12.0718 15.4846C12.0624 15.5222 12.0248 15.494 11.9684 15.5034H9.81538C9.66496 15.5034 9.56154 15.494 9.49573 15.4C9.29829 15.0051 9.09145 14.6197 8.89402 14.2248C8.69658 13.8393 8.48034 13.4444 8.2547 13.0402C8.02906 12.6359 7.80342 12.2316 7.57778 11.8179H7.55897C7.36154 12.2222 7.1453 12.6265 6.92906 13.0308C6.71282 13.435 6.49658 13.8393 6.28974 14.2342C6.0735 14.6291 5.85726 15.0333 5.64103 15.4188C5.60342 15.5128 5.5282 15.5222 5.42479 15.5222H3.35641C3.3188 15.5222 3.2906 15.541 3.2906 15.494C3.28646 15.4764 3.28599 15.4581 3.28923 15.4403C3.29246 15.4226 3.29933 15.4056 3.3094 15.3906L6.23333 10.5957L3.38462 5.77265C3.35641 5.73504 3.34701 5.69744 3.36581 5.67863C3.38462 5.65043 3.42222 5.64103 3.45983 5.64103ZM16.5658 9.61795C16.1991 9.61795 15.8325 9.69316 15.5034 9.86239C15.1838 10.0222 14.9111 10.2573 14.7043 10.5581C14.4974 10.859 14.394 11.2632 14.394 11.7521C14.3846 12.0812 14.441 12.4103 14.5538 12.7205C14.6479 12.9744 14.7889 13.2 14.9769 13.388C15.1556 13.5573 15.3718 13.6889 15.6162 13.7641C15.8701 13.8487 16.1333 13.8863 16.3966 13.8863C16.5376 13.8863 16.6692 13.8769 16.7915 13.8675C16.9137 13.8769 17.0171 13.8581 17.1299 13.8205V9.68376C16.9451 9.63998 16.7558 9.61789 16.5658 9.61795Z" fill="black"/>
</svg>
